<?xml version="1.0" encoding="UTF-8" standalone="no"?>
<!-- Created with Inkscape (http://www.inkscape.org/) -->

<svg
   xmlns:dc="http://purl.org/dc/elements/1.1/"
   xmlns:cc="http://creativecommons.org/ns#"
   xmlns:rdf="http://www.w3.org/1999/02/22-rdf-syntax-ns#"
   xmlns:svg="http://www.w3.org/2000/svg"
   xmlns="http://www.w3.org/2000/svg"
   xmlns:sodipodi="http://sodipodi.sourceforge.net/DTD/sodipodi-0.dtd"
   xmlns:inkscape="http://www.inkscape.org/namespaces/inkscape"
   width="161.20267mm"
   height="169.10799mm"
   viewBox="0 0 161.20267 169.10798"
   version="1.1"
   id="svg6585"
   inkscape:version="0.92.2 (5c3e80d, 2017-08-06)"
   sodipodi:docname="sac.svg">
  <defs
     id="defs6583">
    <style
       id="style826">.cls-1{fill:#faaf3d;}.cls-2{fill:none;}.cls-10,.cls-22,.cls-3{fill:#f1e4c4;}.cls-3,.cls-5{opacity:0.5;}.cls-4{fill:#363738;}.cls-32,.cls-5{fill:#c6bda3;}.cls-23,.cls-6{fill:#f05c42;}.cls-7{fill:#102f41;}.cls-8{fill:#f6b344;}.cls-9{fill:#058486;}.cls-11{fill:#fff;}.cls-12{fill:#6dae7e;}.cls-13{fill:#f7f1e6;}.cls-14{fill:#ce9132;}.cls-15{fill:#0c5054;}.cls-16{fill:#dacfb2;}.cls-17{fill:#403833;}.cls-18{fill:#dac18e;}.cls-19{fill:#e6a123;}.cls-20{fill:#b9bbbd;}.cls-21,.cls-24{fill:#002031;}.cls-21,.cls-22,.cls-23,.cls-33,.cls-34,.cls-35,.cls-37{fill-rule:evenodd;}.cls-25{fill:#017071;}.cls-26{clip-path:url(#clip-path);}.cls-27{clip-path:url(#clip-path-2);}.cls-28{fill:#e3ddd2;}.cls-29{fill:#007072;}.cls-30{clip-path:url(#clip-path-3);}.cls-31{fill:#016f70;}.cls-33{fill:#674c3b;}.cls-34,.cls-36{fill:#ddc7ad;}.cls-35{fill:#f6f1e6;}.cls-37{fill:#f2dbbc;}.cls-38{fill:#052537;}.cls-39{fill:#ed6245;}</style>
    <clipPath
       id="clip-path">
      <rect
         id="rect828"
         transform="rotate(-0.16,389.75724,408.77716)"
         height="74.790001"
         width="11.51"
         y="377.91"
         x="392.19"
         class="cls-1"
         style="fill:#faaf3d" />
    </clipPath>
    <clipPath
       id="clip-path-2">
      <path
         id="path831"
         d="m 421.56,398.88 h -12.9 v 53.68 h 12.9 v -4.18 c 11.5,-1.61 20.39,-11.11 20.47,-22.63 0.08,-11.52 -8.83,-21.32 -20.46,-23 z m 0,38.67 v -23.93 a 12.2,12.2 0 0 1 0,23.93 z"
         class="cls-2"
         inkscape:connector-curvature="0"
         style="fill:none" />
    </clipPath>
    <clipPath
       id="clip-path-3">
      <path
         id="path834"
         d="m 584.84,547.87 a 28.25,28.25 0 0 0 -56.41,0 8.24,8.24 0 0 0 0,0.9 v 32.95 a 8.34,8.34 0 0 0 8.34,8.34 h 39.83 a 8.34,8.34 0 0 0 8.34,-8.34 v -32.95 a 8.47,8.47 0 0 0 -0.1,-0.9 z"
         class="cls-2"
         inkscape:connector-curvature="0"
         style="fill:none" />
    </clipPath>
    <style
       id="style6605">.cls-1{fill:#faaf3d;}.cls-2{fill:none;}.cls-10,.cls-22,.cls-3{fill:#f1e4c4;}.cls-3,.cls-5{opacity:0.5;}.cls-4{fill:#363738;}.cls-32,.cls-5{fill:#c6bda3;}.cls-23,.cls-6{fill:#f05c42;}.cls-7{fill:#102f41;}.cls-8{fill:#f6b344;}.cls-9{fill:#058486;}.cls-11{fill:#fff;}.cls-12{fill:#6dae7e;}.cls-13{fill:#f7f1e6;}.cls-14{fill:#ce9132;}.cls-15{fill:#0c5054;}.cls-16{fill:#dacfb2;}.cls-17{fill:#403833;}.cls-18{fill:#dac18e;}.cls-19{fill:#e6a123;}.cls-20{fill:#b9bbbd;}.cls-21,.cls-24{fill:#002031;}.cls-21,.cls-22,.cls-23,.cls-33,.cls-34,.cls-35,.cls-37{fill-rule:evenodd;}.cls-25{fill:#017071;}.cls-26{clip-path:url(#clip-path);}.cls-27{clip-path:url(#clip-path-2);}.cls-28{fill:#e3ddd2;}.cls-29{fill:#007072;}.cls-30{clip-path:url(#clip-path-3);}.cls-31{fill:#016f70;}.cls-33{fill:#674c3b;}.cls-34,.cls-36{fill:#ddc7ad;}.cls-35{fill:#f6f1e6;}.cls-37{fill:#f2dbbc;}.cls-38{fill:#052537;}.cls-39{fill:#ed6245;}</style>
    <clipPath
       id="clip-path-7">
      <rect
         id="rect6607"
         transform="rotate(-0.16,389.75724,408.77716)"
         height="74.790001"
         width="11.51"
         y="377.91"
         x="392.19"
         class="cls-1"
         style="fill:#faaf3d" />
    </clipPath>
    <clipPath
       id="clip-path-2-8">
      <path
         id="path6610"
         d="m 421.56,398.88 h -12.9 v 53.68 h 12.9 v -4.18 c 11.5,-1.61 20.39,-11.11 20.47,-22.63 0.08,-11.52 -8.83,-21.32 -20.46,-23 z m 0,38.67 v -23.93 a 12.2,12.2 0 0 1 0,23.93 z"
         class="cls-2"
         inkscape:connector-curvature="0"
         style="fill:none" />
    </clipPath>
    <clipPath
       id="clip-path-3-2">
      <path
         id="path6613"
         d="m 584.84,547.87 a 28.25,28.25 0 0 0 -56.41,0 8.24,8.24 0 0 0 0,0.9 v 32.95 a 8.34,8.34 0 0 0 8.34,8.34 h 39.83 a 8.34,8.34 0 0 0 8.34,-8.34 v -32.95 a 8.47,8.47 0 0 0 -0.1,-0.9 z"
         class="cls-2"
         inkscape:connector-curvature="0"
         style="fill:none" />
    </clipPath>
  </defs>
  <sodipodi:namedview
     id="base"
     pagecolor="#ffffff"
     bordercolor="#666666"
     borderopacity="1.0"
     inkscape:pageopacity="0.0"
     inkscape:pageshadow="2"
     inkscape:zoom="0.6783156"
     inkscape:cx="304.63496"
     inkscape:cy="347.08748"
     inkscape:document-units="mm"
     inkscape:current-layer="g8470"
     showgrid="false"
     fit-margin-top="0"
     fit-margin-left="0"
     fit-margin-right="0"
     fit-margin-bottom="0"
     inkscape:window-width="1366"
     inkscape:window-height="715"
     inkscape:window-x="-8"
     inkscape:window-y="-8"
     inkscape:window-maximized="1" />
  <metadata
     id="metadata5">
    <rdf:RDF>
      <cc:Work
         rdf:about="">
        <dc:format>image/svg+xml</dc:format>
        <dc:type
           rdf:resource="http://purl.org/dc/dcmitype/StillImage" />
        <dc:title></dc:title>
      </cc:Work>
    </rdf:RDF>
  </metadata>
  <g
     inkscape:label="Calque 1"
     inkscape:groupmode="layer"
     id="ampoule"
     transform="translate(-90.556806,-1.3153464)">
    <g
       id="g8363"
       transform="matrix(1.0347657,0,0,1.0347657,-3.2073597,0.94769274)"
       style="opacity:1">
      <g
         id="g8470">
        <path
           sodipodi:nodetypes="ccccccccc"
           style="fill:#102f41;fill-opacity:1;stroke:none;stroke-width:2.19764972;stroke-opacity:1"
           inkscape:connector-curvature="0"
           class="cls-6"
           d="m 216.16085,136.06934 c 2e-5,8.35044 6.76943,15.11981 15.11987,15.1198 v 0 c 8.35044,0 15.11981,-6.76936 15.11983,-15.1198 l -2.63868,-28.74074 c 4e-5,-8.350479 -4.13067,-23.035934 -12.48115,-23.035936 v 0 c -8.35048,-6e-6 -15.1199,6.769413 -15.11987,15.119893 z"
           id="path9302" />
        <path
           id="path7185"
           d="m 131.42187,74.662406 a 9.3180346,9.3180346 0 0 1 -9.31804,9.29599 v 0 a 9.3180346,9.3180346 0 0 1 -9.31802,-9.29599 V 32.907005 a 9.3180346,9.3180346 0 0 1 9.31802,-9.318006 v 0 a 9.3180346,9.3180346 0 0 1 9.31804,9.318006 z"
           class="cls-7"
           inkscape:connector-curvature="0"
           style="fill:#102f41;stroke-width:2.19764972" />
        <path
           id="path7187"
           d="m 224.22864,74.662406 a 9.3180346,9.3180346 0 0 1 -9.31806,9.29599 v 0 a 9.3180346,9.3180346 0 0 1 -9.31802,-9.29599 V 32.907005 a 9.3180346,9.3180346 0 0 1 9.31802,-9.318006 v 0 a 9.3180346,9.3180346 0 0 1 9.31806,9.318006 z"
           class="cls-7"
           inkscape:connector-curvature="0"
           style="fill:#102f41;stroke-width:2.19764972" />
        <path
           id="path7189"
           d="m 191.99074,29.452241 -8.7906,-1.758147 c 0,0 1.64823,-8.790572 -2.7031,-14.064932 -2.39543,-2.922909 -6.43912,-4.3953277 -11.99916,-4.3953277 -5.56006,0 -9.60374,1.4724187 -11.99917,4.3953277 -4.3953,5.296288 -2.72509,13.998981 -2.70311,14.086942 l -8.79059,1.736137 c 0,-0.527436 -2.50533,-12.85623 4.50518,-21.4271057 4.17553,-5.098521 10.52674,-7.66983397 18.89978,-7.66983397 8.37304,0 14.72424,2.59324097 18.89979,7.66983397 7.16433,8.6367437 4.76889,20.9656207 4.68098,21.4271057 z"
           class="cls-7"
           inkscape:connector-curvature="0"
           style="fill:#102f41;stroke-width:2.19764972" />
        <path
           id="path7191"
           d="m 120.85358,136.06934 c -2e-5,8.35044 -6.7694,15.11981 -15.11984,15.1198 v 0 c -8.350442,0 -15.119813,-6.76936 -15.11983,-15.1198 l 2.63868,-28.74074 c -3.5e-5,-8.350479 4.130672,-23.035934 12.48115,-23.035936 v 0 c 8.35048,-6e-6 15.11987,6.769413 15.11984,15.119893 z"
           class="cls-6"
           inkscape:connector-curvature="0"
           style="fill:#102f41;fill-opacity:1;stroke:none;stroke-width:2.19764972;stroke-opacity:1"
           sodipodi:nodetypes="ccccccccc" />
        <path
           id="path7195"
           d="m 230.39556,71.018883 a 62.083604,62.083604 0 0 0 -123.96941,0 18.108633,18.108633 0 0 0 0,1.977842 v 72.412545 a 18.328398,18.328398 0 0 0 18.3284,18.32845 h 87.53238 a 18.328398,18.328398 0 0 0 18.32839,-18.32845 V 72.996725 a 18.614093,18.614093 0 0 0 -0.21977,-1.977842 z"
           class="cls-9"
           inkscape:connector-curvature="0"
           style="fill:#ff8b2f;fill-opacity:1;stroke-width:2.19764972" />
        <path
           id="path7197"
           d="m 221.63579,133.70941 a 53.293005,53.293005 0 0 0 -106.43216,0 15.735173,15.735173 0 0 0 0,1.6922 v 22.72377 c 0,0 2.19764,2.37346 9.03233,2.37346 h 88.30156 a 17.800963,17.800963 0 0 0 9.29606,-3.01079 v -21.97657 a 15.163783,15.163783 0 0 0 -0.19776,-1.80207 z"
           class="cls-10"
           inkscape:connector-curvature="0"
           style="fill:#1a1a1a;fill-opacity:1;stroke-width:2.19764972" />
        <path
           id="path7199"
           d="m 221.63572,136.94837 a 53.293005,53.293005 0 0 0 -106.43216,0 15.845053,15.845053 0 0 0 0,1.6922 v 22.76762 c 0,0 2.19764,2.37346 9.03233,2.37346 h 88.30156 a 17.800963,17.800963 0 0 0 9.29606,-3.01078 v -21.97646 a 15.383548,15.383548 0 0 0 -0.19776,-1.84604 z"
           class="cls-6"
           inkscape:connector-curvature="0"
           style="fill:#102f41;fill-opacity:1;stroke-width:2.19764972" />
        <g
           style="fill:#ff8b2f;fill-opacity:1"
           id="g7203"
           clip-path="url(#clip-path-3)"
           class="cls-30"
           transform="matrix(2.1976498,0,0,2.1976498,-1054.8779,-1133.0075)">
          <path
             id="path7201"
             d="m 586.55,518 c 0,16.28 -13.2,25.46 -29.49,25.46 -16.29,0 -29.49,-9.18 -29.49,-25.46 a 29.5,29.5 0 1 1 59,0 z"
             class="cls-10"
             inkscape:connector-curvature="0"
             style="fill:#ff8b2f;fill-opacity:1" />
        </g>
        <path
           id="path7205"
           d="m 148.40987,42.600474 h 40.04687 a 21.205593,1.2119144 0 0 1 21.20554,1.211924 v 1.31748 a 21.131705,1.2076917 0 0 1 -21.13167,1.207696 h -40.0468 a 21.131705,1.2076917 0 0 1 -21.13164,-1.207696 v -1.32171 a 21.205593,1.2119144 0 0 1 21.0577,-1.207694 z"
           class="cls-7"
           inkscape:connector-curvature="0"
           style="fill:#1a1a1a;fill-opacity:1;stroke-width:1.76636028" />
        <path
           style="fill:#ff8b2f;fill-opacity:1;stroke-width:2.19502378"
           inkscape:connector-curvature="0"
           class="cls-7"
           d="m 154.91805,115.02229 h 27.07839 a 14.338532,2.767818 0 0 1 14.3385,2.76785 v 3.00892 a 14.288572,2.758174 0 0 1 -14.28855,2.75819 h -27.07834 a 14.288572,2.758174 0 0 1 -14.28853,-2.75819 v -3.01858 a 14.338532,2.767818 0 0 1 14.23853,-2.75819 z"
           id="path8400" />
        <g
           id="g9324"
           transform="matrix(0.77047517,0,0,0.77047517,187.42259,2.6487054)">
          <circle
             r="3.007401"
             cy="68.436783"
             cx="24.835394"
             id="path9313"
             style="opacity:1;fill:#ff8b2f;fill-opacity:1;fill-rule:nonzero;stroke:#102f41;stroke-width:1.9328047;stroke-miterlimit:4;stroke-dasharray:none;stroke-dashoffset:0;stroke-opacity:1" />
          <g
             id="g9319">
            <path
               style="opacity:1;fill:#102f41;fill-opacity:1;fill-rule:nonzero;stroke:none;stroke-width:1.7779218;stroke-miterlimit:4;stroke-dasharray:none;stroke-dashoffset:0;stroke-opacity:1"
               d="m 23.798771,53.829805 h 2.073248 L 27.945268,66.0337 h -6.219746 z"
               id="rect9315"
               inkscape:connector-curvature="0"
               sodipodi:nodetypes="ccccc" />
          </g>
        </g>
      </g>
    </g>
  </g>
</svg>
